<?xml version="1.0" encoding="utf-8"?>
<!-- Generator: Adobe Illustrator 27.5.0, SVG Export Plug-In . SVG Version: 6.00 Build 0)  -->
<svg version="1.1" id="Capa_1" xmlns="http://www.w3.org/2000/svg" xmlns:xlink="http://www.w3.org/1999/xlink" x="0px" y="0px"
	 viewBox="0 0 2122 2122" style="enable-background:new 0 0 2122 2122;" xml:space="preserve">
<g>
	<path style="fill:#2E3859;" d="M1523.437,883.623c-2.633-21.412-11.159-41.469-28.475-54.983c-0.139-0.108-0.284-0.126-0.425-0.137
		c13.072-114.95,23.79-226.353,6.941-319.887c-26.753-148.514-138.609-320.088-412.279-329.572
		C761.293,167.68,658.751,362.027,632.842,494.391c-21.914,111.95-17.5,263.173-8.267,334.115c-0.139,0.013-0.28,0.028-0.417,0.135
		c-31.65,24.699-32.733,68.907-26.248,105.225c6.95,38.927,26.219,81.1,63.288,99.625c16.247,8.12,36.962,11.893,55.007,7.212
		c1.318,38.468,7.517,78.271,23.295,113.06c19.511,43.015,52.164,81.287,90.425,108.752c23.317,16.738,49.611,27.19,75.232,39.723
		c12.512,6.12,27.286,12.632,35.562,24.377c3.398,4.822,5.691,10.959,2.392,16.451c-3.121,5.196-9.636,7.772-14.971,9.977
		c-54.007,22.322-113.574,37.062-160.796,72.99c-33.811,25.725-61.135,63.518-72.392,104.789
		c-7.38,27.059-9.645,55.782-12.056,83.621c-3.286,37.952-5.209,76.017-6.87,114.069c-1.692,38.773-2.976,77.561-4.472,116.342
		c-0.623,16.157-1.277,32.316-2.075,48.466c-0.594,12.009-2.296,24.252-2.269,36.257c0.005,2.182,0.255,4.385,0.345,6.567
		c0.042,1.022,0.02,2.062,0.108,3.079l0.028,1.156c0.03,1.167,0.101,1.251,0.16,1.032c-0.284,4.012,5.848,5.673,6.45,1.512
		c0.043-0.298,0.138-0.594,0.195-0.891h88.924c0,0.047,534.935,1.485,574.935,0.165c0.367,2.995,5.013,3.008,4.946-0.165h101.322
		c0.057,0.297,0.151,0.593,0.195,0.891c0.601,4.15,6.717,2.51,6.45-1.496c0.058,0.202,0.127,0.095,0.16-1.048l0.028-1.156
		c0.087-1.016,0.065-2.059,0.107-3.079c0.095-2.3,0.388-4.637,0.369-6.937c-0.046-5.56-0.875-11.213-1.228-16.767
		c-0.917-14.437-1.538-28.892-2.158-43.344c-1.578-36.77-2.753-73.556-4.202-110.331c-1.558-39.566-3.304-79.136-6.109-118.636
		c-2.211-31.135-4.649-62.542-10.456-93.25c-6.901-36.492-25.209-70.56-50.381-97.747c-38.03-41.073-92.336-60.705-143.543-79.756
		c-14.325-5.329-28.745-10.498-42.874-16.335c-5.335-2.204-11.861-4.771-14.97-9.977c-3.479-5.826-0.755-12.268,2.936-17.235
		c8.569-11.531,23.492-17.995,36.044-24.092c13.712-6.661,27.788-12.553,41.405-19.415c44.358-22.354,81.495-58.206,107.841-100.141
		c24.518-39.025,34.335-83.905,39.575-129.248c0.445-3.853,0.773-7.712,1.114-11.57c35.311,8.424,71.984-14.124,91.232-42.69
		C1517.918,966.375,1528.189,922.266,1523.437,883.623z M624.838,830.019c0.046,0.223,0.091,0.435,0.138,0.657
		c-0.973,0.85-1.915,1.767-2.85,2.702C623.018,832.253,623.886,831.117,624.838,830.019z"/>
	<path style="fill:#F7CEBE;" d="M1516.299,879.026c-2.064-18.685-9.997-35.303-22.33-49.393c-0.287-0.328-0.223-0.68-0.018-0.912
		c-23.595-18.36-56.62-12.342-79.33,32.821c-2.573,5.117-5.055,9.698-7.456,13.871c-41.924-45.51,9.769-226.407-30.072-310.104
		c-4.507,10.189-10.067,19.987-16.165,29.016c-4.785,7.084-11.743,14.776-20.175,13.37c-8.521-1.422-12.703-11.548-12.441-20.183
		c0.261-8.635,3.333-17.139,2.474-25.736c-3.719,19.375-24.117,34.874-43.37,30.563c-14.158-3.169-24.1-18.036-23.739-32.001
		c-8.598,17.344-26.637,30.207-45.832,28.602c-24.149-2.019-43.176-31.006-32.08-52.549c-5.889,9.85-11.779,19.7-17.668,29.549
		c-1.637,2.739-3.375,5.581-6.087,7.261c-7.586,4.7-17.219-2.253-21.932-9.831c-6.614-10.636-9.518-23.493-8.292-35.948
		c-2.77,16.791-8.692,33.968-22.98,42.631c-12.292,7.453-29.24,6.229-40.334-2.913c-9.488-7.818-14.055-20.938-12.089-33.014
		c-2.141,8.166-4.813,16.227-9.844,22.931c-6.269,8.352-17.212,14.12-27.227,11.164c-16.204-4.781-18.923-26.46-17.044-43.249
		c-4.572,15.533-9.264,31.329-18.209,44.825c-8.946,13.496-22.954,24.592-39.083,26.018c-28.59,2.527-52.066-27.274-52.321-55.975
		c-3.529,8.268-7.256,16.818-13.962,22.804c-6.707,5.986-17.301,8.628-24.786,3.648c-10.129-6.739-8.842-21.747-6.384-33.662
		c-7.19,17.782-14.805,36.192-28.962,49.135c-14.156,12.942-36.87,18.668-52.732,7.885c-8.852-6.018-14.169-16.062-17.425-26.259
		c-2.685-8.409-4.099-17.192-4.391-26.013c-40.819,41.252-24.251,117.1-24.251,183.039c0,80.599,15.433,117.934,1.774,160.97
		c0.353,2.497,0.701,4.995,1.023,7.494c1.319,10.245,2.366,20.505,2.969,30.842c2.22,38.072-0.989,76.222,0.188,114.272
		c0.178,5.766,0.445,11.53,0.859,17.29c1.812,25.196,6.363,50.392,13.281,74.686c5.629,19.764,15.341,38.296,26.56,55.428
		c13.567,20.717,30.058,39.49,48.711,55.774c20.988,18.323,44.527,31.824,69.856,43.195c13.902,6.241,27.965,12.204,41.305,19.605
		c11.189,6.208,22.585,14.169,28.029,26.209c9.199,20.348-6.453,31.555-23.335,39.064c0.047,10.306,0.699,20.82,1.431,31.111
		c0.689,9.695,2.128,19.228,4.67,28.616c4.232,15.627,11.471,30.304,21.333,43.172c17.373,22.668,43.822,34.971,71.569,39.254
		c26.393,4.073,56.456,3.471,81.88-5.455c21.712-7.623,37.288-23.77,47.414-44.1c6.363-12.776,10.324-26.479,13.781-40.275
		c4.498-17.952,7.566-36.09,9.534-54.474c-3.683-1.819-7.195-3.858-10.314-6.322c-9.548-7.543-12.498-19.484-7.477-30.59
		c5.442-12.04,16.841-20.002,28.029-26.21c25.582-14.194,53.651-23.316,78.607-38.725c41.175-25.423,75.561-63.542,96.804-107.023
		c10.113-20.701,15.328-43.068,19.9-65.547c3.442-16.927,5.871-33.996,7.414-51.172c-0.92-1.172-1.226-2.592-0.957-3.955
		c0.2-1.008,0.703-1.911,1.446-2.645c0.25-3.259,0.537-6.515,0.724-9.782c2.757-48.236,2.673-96.29,9.786-144.208
		c0.454-3.055,5.591-2.3,5.359,0.725c-1.095,14.347-1.969,28.725-2.758,43.092c-2.004,36.539-0.927,73.23-3.379,109.734
		c7.391,1.338,14.6,2.423,22.311,1.871c9.709-0.695,19.122-3.586,27.666-8.219c33.316-18.066,49.638-56.153,57.063-91.564
		C1516.456,915.196,1518.254,896.714,1516.299,879.026z"/>
	<path style="fill:#2E3859;" d="M1364.632,832.965c-0.789-12.845-1.984-25.777-4.865-38.343
		c-2.376-10.363-5.869-21.622-14.444-28.566c-10.889-8.837-24.393-11.186-38.113-12.217c-22.036-1.656-44.206-1.678-66.29-1.405
		c-18.018,0.223-36.027,0.793-54.033,1.45c-23.482,0.857-51.953,0.756-67.509,21.52c-6.58,8.783-9.382,19.449-10.626,30.232
		c-10.28-12.781-27.574-20.507-43.359-20.967c-11.132-0.324-22.231,2.565-31.854,8.134c-5.398,3.123-10.406,7.001-14.863,11.357
		c-1.421,1.389-3.208,3.093-4.949,4.961c-0.487-4.997-1.231-9.944-2.432-14.752c-3.43-13.747-11.551-25.617-24.42-32.007
		c-13.338-6.623-28.694-7.664-43.334-8.186c-15.413-0.549-30.826-1.116-46.245-1.46c-24.949-0.554-49.971-0.783-74.897,0.625
		c-16.138,0.912-32.749,2.192-45.714,12.714c-7.43,6.016-10.962,15.292-13.377,24.263c-3.024,11.235-4.414,22.904-5.356,34.477
		c-0.806,9.913-1.2,19.863-1.663,29.797c-0.717,15.374-0.552,31.246,5.512,45.662c6.077,14.447,17.22,24.294,30.376,31.261
		c13.374,7.082,28.828,11.19,43.182,14.096c18.023,3.648,36.459,5.48,54.819,6.252c13.745,0.577,27.966,1.12,41.787-0.487
		c3.853-0.448,7.68-1.032,11.449-1.866c28.901-6.394,50.8-28.843,61.394-55.833c6.497-16.553,8.757-34.519,9.347-52.19
		c0.279-8.368,0.502-17.019,0.073-25.598c0.203-0.227,0.395-0.461,0.605-0.68c2.088-2.183,4.276-4.284,6.55-6.272
		c4.367-3.819,9.189-7.11,14.359-9.745c8.748-4.459,18.633-7.13,28.483-6.905c9.115,0.209,17.986,2.88,25.563,7.972
		c8.311,5.585,12.84,13.284,18.013,21.499c-0.442,15.258,0.036,30.653,2.449,45.711c4.797,29.935,19.911,58.873,47.145,74.016
		c4.185,2.327,8.533,4.129,12.975,5.591c10.762,3.54,22.146,4.851,33.597,5.107c0.444,0.01,0.89,0,1.335,0.008
		c2.824,0.054,5.651,0.053,8.478,0.052c15.464-0.005,30.957-0.796,46.308-2.553c18.216-2.085,39.003-5.036,57.433-12.171
		c11.888-4.602,22.805-10.93,31.391-19.94C1370.457,894.969,1366.392,861.59,1364.632,832.965z"/>
	<path style="fill:#F7CEBE;" d="M1360.352,827.602c-0.369-11.295-1.139-22.661-3.346-33.762
		c-1.908-9.601-4.762-20.456-11.904-27.564c-4.196-3.406-13.002-2.716-17.969-2.705c-9.178,0.02-18.355-1.253-27.523-1.721
		c-22.729-1.162-45.533-0.933-68.277-0.392c-15.288,0.365-30.567,0.963-45.845,1.6c-22.644,0.944-51.741,0.683-62.897,24.607
		c-6.077,13.034-5.826,28.413-5.873,42.479c-0.055,16.927,0.921,34.011,5.514,50.385c7.574,26.998,26.481,51.976,54.173,60.272
		c0.297,0.089,0.6,0.146,0.897,0.231c16.041,4.604,33.277,4.204,49.802,3.717c17.369-0.512,34.728-2.002,51.857-4.966
		c9.695-1.677,20.278-3.713,30.51-6.82c19.828-6.019,38.309-16.131,46.256-35.962
		C1364.258,875.711,1361.087,850.133,1360.352,827.602z"/>
	<path style="fill:#F7CEBE;" d="M1004.556,809.19c-1.242-13.813-5.432-28.148-17.559-36.234
		c-16.735-11.158-39.435-9.451-58.797-10.245c-17.565-0.72-35.136-1.298-52.715-1.541c-19.808-0.274-39.673-0.261-59.448,1.051
		c-8.013,0.532-15.934,1.2-23.96,1.373c-4.283,0.092-11.572-0.24-15.171,2.682c-8.151,8.112-10.906,21.043-12.703,31.997
		c-1.948,11.87-2.507,23.96-2.711,35.972c-0.475,27.926-4.873,61.315,18.358,81.841c5.918,5.229,12.814,9.156,20.087,12.27
		c5.987,2.564,12.228,4.587,18.425,6.247c16.497,4.415,33.615,7.011,50.601,8.589c16.98,1.578,34.275,2.374,51.319,1.506
		c1.699-0.086,3.389-0.212,5.076-0.358c13.561-1.172,26.635-4.388,38.258-11.921c26.135-16.937,37.984-47.463,40.718-77.359
		C1005.715,839.944,1005.916,824.322,1004.556,809.19z"/>
	<path style="fill:#F3B4AC;" d="M1317.521,937.518c-18.431,7.135-39.217,10.086-57.433,12.171
		c-15.35,1.757-30.843,2.548-46.308,2.553c-2.827,0.001-5.654,0.003-8.478-0.052c-0.445-0.008-0.891,0.002-1.335-0.008
		c-11.451-0.257-22.834-1.567-33.597-5.107c-7.328,7.546-11.542,16.228-11.542,25.484c0,28.929,40.791,52.381,91.11,52.381
		c50.318,0,91.11-23.452,91.11-52.381C1341.048,959.065,1332.098,946.804,1317.521,937.518z"/>
	<path style="fill:#F7CEBE;" d="M1438.699,1893.857c-0.884-15.887-1.553-31.783-2.186-47.681
		c-1.542-38.716-2.862-77.441-4.583-116.151c-0.592-13.307-1.245-26.615-1.945-39.921c-2.488,2.665-5.161,5.192-7.639,7.706
		c-4.636,4.704-9.373,9.274-14.295,13.678c-9.383,8.397-19.081,16.436-29.045,24.136c-17.217,13.305-35.803,26.896-55.66,36.469
		c1.135,6.503,2.274,13.005,3.401,19.51c8.6,49.654,15.49,99.974,16.554,150.427h101.322c-0.729-3.812-2.469-7.571-3.205-11.402
		C1439.134,1918.763,1439.369,1905.893,1438.699,1893.857z"/>
	<path style="fill:#F7CEBE;" d="M760.925,1934.958c0.59-28.226,3.894-56.052,6.998-84.074c3.188-28.788,8.391-57.414,13.932-85.964
		c-8.195-2.87-16.095-7.983-23.471-11.955c-9.602-5.169-18.946-10.671-28.126-16.558c-9.395-6.025-18.652-12.276-27.716-18.79
		c-5.107-3.67-9.971-7.56-14.208-12.073c-0.872,17.737-1.643,35.479-2.361,53.22c-1.505,37.181-2.728,74.375-4.375,111.55
		c-0.637,14.357-1.38,28.714-2.39,43.05c-0.4,5.684-0.443,11.657-1.506,17.265c-0.727,3.834-2.475,7.59-3.206,11.402h88.924
		c0,0,0.145-1.679,0.426-4.758C762.455,1937.545,760.886,1936.807,760.925,1934.958z"/>
	<path style="fill:#61B9D9;" d="M1327.616,1855.171c-4.985-25.153-9.441-50.409-14.411-75.568c-0.234-1.183-0.473-2.366-0.708-3.549
		c-0.284-0.336-0.38-0.759-0.231-1.158c-0.03-0.148-0.059-0.295-0.088-0.443c-4.757-23.9-9.71-47.788-13.623-71.84
		c-7.915-48.641-13.884-99.499-7.209-148.64c0.164-1.206,1.913-0.783,1.991,0.269c2.097,28.569,4.186,57.037,8.231,85.423
		c6.062,42.534,13.471,84.855,20.863,127.174c6.822-5.012,13.794-9.806,20.607-14.882c10.28-7.66,20.241-15.755,29.993-24.076
		c9.757-8.324,19.195-17.022,28.293-26.063c4.676-4.647,9.385-9.266,13.993-13.982c4.195-4.294,8.038-9.077,12.92-12.598
		c0.303-0.219,0.616-0.291,0.925-0.429c-1.162-20.142-2.531-40.271-4.294-60.367c-2.382-27.175-4.574-55.264-12.028-81.625
		c-12.155-42.987-42.027-81.124-79.59-104.784c-12.38-7.797-25.483-14.51-38.884-20.61c-13.976-6.361-28.278-12.056-42.45-17.58
		c-14.264-5.561-28.615-10.894-42.896-16.414c-6.913-2.672-14.548-5.096-21.758-8.184c-2.479,36.709-5.71,75.751-24.554,108.131
		c-12.573,21.604-32.596,36.308-56.532,43.092c-29.405,8.334-63.621,8.448-93.131,0.86c-29.163-7.499-56.115-25.09-71.446-51.493
		c-8.022-13.817-12.742-30.124-15.271-45.806c-1.446-8.968-2.51-17.985-2.892-27.064c-0.364-8.669,0.497-16.795,1.598-25.222
		c-4.954,1.975-9.778,3.688-13.866,5.271c-22.935,8.88-45.975,17.431-68.635,26.959c-5.364,2.255-10.728,4.512-16.04,6.902
		c-24.798,11.159-48.791,24.13-68.79,42.798c-27.772,25.924-47.665,61.159-55.002,98.47c-5.993,30.482-8.321,61.744-10.541,92.683
		c-1.199,16.717-2.183,33.448-3.071,50.185c0.542,0.374,1.036,0.89,1.443,1.576c5.275,8.887,13.923,14.801,22.158,20.722
		c8.32,5.982,16.78,11.77,25.37,17.356c8.856,5.759,17.739,11.504,26.716,17.073c5.876,3.645,12.466,6.859,18.298,10.865
		c3.558-18.187,7.208-36.344,10.521-54.493c4.491-24.597,8.816-49.292,12.254-74.061c3.498-25.201,5.364-50.457,7.273-75.808
		c0.08-1.063,1.826-1.466,1.99-0.269c3.782,27.487,2.897,55.61,0.62,83.21c-3.582,43.427-12.208,86.062-21.35,128.618
		c-12.027,55.986-24.946,111.834-28.47,169.158c-0.084,1.362-1.028,2.113-2.068,2.316c-0.281,3.079-0.426,4.758-0.426,4.758
		c0,0.047,534.935,1.485,574.935,0.165c-0.007-0.06-0.039-0.102-0.043-0.165C1336.54,1912.964,1333.278,1883.743,1327.616,1855.171z
		"/>
	<path style="fill:#F7CEBE;" d="M715.564,877.823c-2.833-4.793-5.784-10.155-8.865-16.282
		c-23.487-46.709-58.013-51.563-81.723-30.864c-0.973,0.85-1.915,1.767-2.85,2.702c-12.191,15.36-18.974,33.177-19.865,53.029
		c-1.579,35.196,7.299,73.634,26.023,103.621c10.054,16.104,24.412,30.201,42.172,37.476c15.248,6.246,29.886,5.192,45.501,2.456
		c-0.028-2.437-0.045-4.868-0.039-7.287c0.06-21.289,1.501-42.53,2.029-63.807C718.616,931.842,717.601,904.773,715.564,877.823z"/>
	<path style="fill:#2E3859;" d="M1045.558,918.849c-12.629,4.91-23.352,18.982-27.528,30.548c-0.336,0.935,1.286,1.573,1.754,0.672
		c4.926-9.481,12.906-20.19,25.583-16.867c10.743,2.811,17.52,3.853,24.122,13.217c7.269,10.319,25.588,0.195,17.832-9.524
		c-4.304-5.395-10.627-11.404-17.869-15.342c-1.934-6.354-4.197-12.658-5.712-19.122c-2.29-9.768-3.589-19.711-3.929-29.738
		c-0.657-19.364,1.655-39.567,6.122-58.398l-0.428-0.18c-9.907,18.378-14.638,37.673-14.945,58.578
		c-0.15,10.252,0.71,20.499,2.434,30.604c0.773,4.537,1.754,9.336,3.039,14.055C1052.564,917.095,1049.045,917.49,1045.558,918.849z
		"/>
	<path style="fill:#2E3859;" d="M752.079,748.134c4.046,0.056,7.527-1.223,11.17-2.578c4.925-0.172,9.763-1.73,15.073-3.249
		c6.728-1.925,13.79-3.226,20.236-5.947c1.727-0.703,3.44-1.442,5.136-2.215c-0.827,0.347-1.653,0.693-2.481,1.04
		c1.556-0.792,3.308-1.316,4.94-1.92c2.982-1.104,5.998-2.119,9.045-3.029c3.053-0.911,6.136-1.716,9.245-2.413
		c1.733-0.388,3.471-0.746,5.218-1.063c0.894-0.162,6.866-1.248,2.432-0.439c-4.003,0.731,0.503,0.018,1.346-0.052
		c1.688-0.142,3.378-0.218,5.068-0.317c3.054-0.18,6.1-0.355,9.161-0.354c3.049,0.001,6.099,0.122,9.137,0.379
		c0.344,0.029,6.911,0.504,2.357,0.214c-4.383-0.279,1.344,0.331,2.309,0.53c5.935,1.228,11.556,3.424,17.43,4.809
		c3.19,0.752,6.293,1.921,9.468,2.661c4.156,0.968,9.041,1.219,13.18,0c-0.636,0.187-1.116,0.324-1.535,0.443
		c0.546-0.115,1.152-0.22,1.677-0.254c12.675-0.825,22.4-11.893,18.942-24.867c-1.349-5.063-2.966-10.049-6.208-14.246
		c-3.403-4.405-8.002-7.587-12.458-10.899c-6.978-5.188-15.482-8.196-23.866-10.38c-17.548-4.57-35.263-5.131-53.09-2.426
		c-15.886,2.41-30.997,8.1-45.442,15.017c-7.929,3.796-14.735,9.79-20.903,16.02c-5.05,5.102-11.691,11.366-14.163,18.554
		c-2.363,2.969-4.485,6.083-5.506,9.81C736.644,739.561,743.285,748.012,752.079,748.134z"/>
	<path style="fill:#2E3859;" d="M1213.256,734.38c0.301,0.019,1.032,0.029,1.729,0.034c-2.231-0.31-2.18-0.306,0.084,0
		c-0.034,0-0.046,0-0.078,0c0.029,0,0.055,0.001,0.084,0.001c0.459,0.062,0.976,0.132,1.618,0.219
		c3.295,0.738,6.59,0.591,9.885-0.443c2.856-0.74,5.612-1.773,8.501-2.438c5.876-1.354,11.502-3.537,17.41-4.817
		c0.625-0.136,1.736-0.523,2.804-0.786c0.406,0.016,0.954,0.007,1.84-0.077c3.035-0.286,6.08-0.445,9.128-0.475
		c3.061-0.029,6.108,0.116,9.162,0.287c1.691,0.095,3.385,0.172,5.074,0.299c0.811,0.06,5.057,0.669,3.637,0.376
		c0.028,0.005,0.079,0.014,0.101,0.018c1.751,0.302,3.495,0.637,5.233,1.012c3.114,0.674,6.204,1.462,9.264,2.35
		c3.054,0.886,6.079,1.874,9.07,2.957c1.517,0.549,3.009,1.161,4.518,1.728c0.245,0.109,0.467,0.209,0.886,0.39
		c7.275,3.15,14.824,4.857,22.432,7.008c5.629,1.591,10.791,3.36,16.068,3.537c3.64,1.359,7.059,2.63,11.165,2.573
		c8.794-0.122,15.436-8.573,13.079-17.17c-1.017-3.709-3.123-6.81-5.471-9.765c-2.362-6.91-8.626-12.851-13.478-17.853
		c-6.046-6.23-12.842-12.502-20.665-16.309c-14.7-7.155-30.183-13.013-46.399-15.476c-17.54-2.664-34.802-2.134-52.11,2.182
		c-8.329,2.076-17.089,4.933-24.041,10.015c-3.829,2.799-7.928,5.651-11.324,9c-4.526,4.463-6.548,10.757-8.147,16.754
		C1190.857,722.487,1200.582,733.555,1213.256,734.38z"/>
	<path style="fill:#EE8B74;" d="M1277.966,973.873c5.004,5.778,10.407,12.215,18.626,14.938c1.627,0.536,2.86-0.726,1.988-1.974
		c-4.936-7.035-11.479-13.467-17.042-20.195c-4.98-6.022-9.851-13.276-18.3-16.224c-1.666-0.58-3.586,0.57-2.801,2.105
		C1264.344,960.192,1272.09,967.087,1277.966,973.873z"/>
	<path style="fill:#EE8B74;" d="M1258.58,969.645c-7.289-6.324-14.333-12.229-23.581-16.487c-2.626-1.208-4.361,1.349-3.162,3.138
		c5.218,7.771,12.575,13.627,20.122,19.882c6.806,5.648,13.9,12.332,22.724,15.669c1.505,0.57,2.938-0.521,2.397-1.803
		C1273.732,982.137,1265.522,975.656,1258.58,969.645z"/>
	<path style="fill:#F3B4AC;" d="M931.964,951.377c-13.82,1.606-28.042,1.064-41.787,0.487c-18.36-0.772-36.796-2.603-54.819-6.252
		c-14.354-2.906-29.808-7.014-43.182-14.096c-13.907,6.337-24.52,14.94-30.125,24.86c-2.881,5.1-4.483,10.531-4.483,16.184
		c0,5.788,1.697,11.339,4.713,16.545c12.056,20.812,46.146,35.836,86.397,35.836c50.318,0,91.11-23.452,91.11-52.381
		C939.789,965.013,936.959,957.858,931.964,951.377z"/>
	<path style="fill:#EE8B74;" d="M869.964,966.643c-4.979-6.022-9.852-13.276-18.305-16.224c-1.666-0.58-3.581,0.57-2.801,2.105
		c3.907,7.668,11.654,14.563,17.53,21.35c5.009,5.778,10.407,12.215,18.626,14.938c1.627,0.536,2.86-0.726,1.988-1.974
		C882.066,979.803,875.527,973.371,869.964,966.643z"/>
	<path style="fill:#EE8B74;" d="M814.066,964.982c-4.973-6.022-9.846-13.276-18.304-16.224c-1.666-0.58-3.581,0.57-2.796,2.105
		c3.908,7.669,11.654,14.563,17.529,21.349c5.005,5.778,10.408,12.214,18.622,14.938c1.627,0.536,2.865-0.73,1.988-1.973
		C826.173,978.141,819.63,971.71,814.066,964.982z"/>
	<path style="fill:#EE8B74;" d="M847.006,969.645c-7.293-6.324-14.334-12.229-23.581-16.487c-2.631-1.208-4.365,1.349-3.166,3.138
		c5.222,7.771,12.579,13.627,20.122,19.882c6.81,5.648,13.899,12.332,22.723,15.669c1.51,0.57,2.943-0.521,2.397-1.803
		C862.153,982.137,853.944,975.656,847.006,969.645z"/>
	<path style="fill:#2E3859;" d="M1135.925,1038.938c-16.826,12.018-39.486,14.839-59.587,15.405
		c-13.407,0.377-27.009,0.35-40.42,0.126c-13.07-0.218-26.174-1.227-39.054-3.504c-11.495-2.033-23.407-4.841-33.559-10.815
		l-0.284,0.367c18.243,14.246,44.081,19.674,66.359,23.405c27.445,4.596,55.874,3.975,82.591-4.608
		c10.008-3.215,21.283-8.231,26.193-18.137C1138.823,1039.85,1137.37,1037.906,1135.925,1038.938z"/>
	<path style="fill:#2E3859;" d="M1111.41,1320.669c-21.588,4.74-44.294,7.341-66.403,7.136c-10.726-0.099-21.467-0.938-32.129-2.081
		c-5.458-0.586-10.84-1.715-16.284-2.331c-5.327-0.603-11.128,0.467-16.534,0.59c-1.861,0.042-2.746,2.693-0.983,3.631
		c4.725,2.518,9.986,5.922,15.158,7.294c4.836,1.284,10.247,1.557,15.216,2.105c11.846,1.306,23.668,1.391,35.556,0.602
		c23.33-1.547,45.221-6.414,66.901-15.144C1113.004,1322.032,1112.614,1320.405,1111.41,1320.669z"/>
	<path style="fill:#2E3859;" d="M1456.885,849.196c-1.667-0.382-2.81,1.973-1.202,2.85c23.276,12.691,28.342,41.406,24.413,67.199
		c-3.406-2.043-7.624-3.096-11.267-3.298c-8.042-0.444-15.846,3.2-21.826,8.353c-11.847,10.208-18.242,32.474-5.233,44.438
		c6.351,5.84,16.074,6.043,23.623,2.64c8.11-3.655,13.518-11.401,17.198-19.217c8.896-18.893,10.916-40.409,6.63-60.747
		C1485.426,873.4,1476.589,853.708,1456.885,849.196z M1471.968,946.96c-3.185,6.841-8.152,14.982-16.615,15.237
		c-9.086,0.273-10.305-10.17-8.557-16.969c1.888-7.343,7.516-13.981,14.65-16.705c6.624-2.53,11.153-1.056,16.248,2.322
		C1476.16,936.618,1474.235,942.092,1471.968,946.96z"/>
	<path style="fill:#2E3859;" d="M653.235,915.962c-4.419-0.3-9.977,0.724-14.213,3.273c-3.925-25.789,1.143-54.5,24.415-67.189
		c1.594-0.87,0.482-3.235-1.201-2.85c-16.487,3.776-26.049,18.912-30.457,34.25c-5.661,19.698-5.77,41.491,1.422,60.855
		c5.699,15.342,18.889,35.304,38.231,27.98c17.551-6.646,14.869-30.61,5.49-42.797C671.279,922.152,662.63,916.599,653.235,915.962z
		 M664.573,962.217c-8.811,0.433-14.186-8.308-17.421-15.257c-2.267-4.868-4.193-10.342-5.726-16.114
		c5.075-3.358,9.683-4.871,16.247-2.323c7.141,2.771,12.74,9.331,14.65,16.705C673.993,951.671,673.079,961.798,664.573,962.217z"/>
	<path style="fill:#EE8B74;" d="M1240.695,987.15c1.627,0.536,2.86-0.73,1.988-1.973c-4.936-7.035-11.474-13.466-17.038-20.195
		c-3.554-4.299-7.078-9.2-11.864-12.74c-2.827,0.001-5.654,0.003-8.478-0.052c4.083,7.138,11.234,13.632,16.766,20.022
		C1227.077,977.99,1232.475,984.426,1240.695,987.15z"/>
	<path style="fill:#F3B4AC;" d="M1177.302,941.032c16.041,4.604,33.277,4.204,49.802,3.717c17.369-0.512,34.728-2.002,51.857-4.966
		c9.695-1.677,20.278-3.713,30.51-6.82c-15.974-7.946-36.752-12.786-59.533-12.786
		C1220.237,920.178,1193.934,928.387,1177.302,941.032z"/>
	<path style="fill:#F3B4AC;" d="M799.935,928.356c5.987,2.564,12.228,4.587,18.425,6.247c16.497,4.415,33.615,7.011,50.601,8.589
		c16.98,1.578,34.275,2.374,51.319,1.506c1.699-0.086,3.389-0.212,5.076-0.358c-16.199-14.517-44.452-24.161-76.678-24.161
		C830.729,920.178,814.041,923.204,799.935,928.356z"/>
	<path style="fill:#2E3859;" d="M883.687,804.774c-15.182,0-27.49,16.071-27.49,35.895c0,19.824,12.307,35.895,27.49,35.895
		c15.183,0,27.49-16.071,27.49-35.895C911.177,820.844,898.869,804.774,883.687,804.774z"/>
	<path style="fill:#2E3859;" d="M1223.686,804.774c-15.182,0-27.49,16.071-27.49,35.895c0,19.824,12.308,35.895,27.49,35.895
		c15.182,0,27.49-16.071,27.49-35.895C1251.175,820.844,1238.867,804.774,1223.686,804.774z"/>
</g>
</svg>
